<!-- Generated by IcoMoon.io -->
<svg version="1.1" xmlns="http://www.w3.org/2000/svg" width="29" height="32" viewBox="0 0 29 32">
<title>client</title>
<path d="M13.652 22.122q0.018 4.936 0.034 9.878l-13.686-0.009c0.103-1.614 0.283-3.088 0.541-4.536l-0.035 0.24c0.378-2.188 0.609-2.864 0.868-3.373 0.48-0.975 1.115-1.801 1.881-2.482l0.008-0.007c0.743-0.631 1.612-1.141 2.562-1.484l0.058-0.018c0.632-0.261 1.373-0.473 2.142-0.601l0.061-0.008 2.578 4.591zM28.639 31.991h-13.372q-0.034-4.96-0.034-9.917l2.742 2.258 2.575-4.591c2.947 0.272 5.425 2.048 6.681 4.544l0.022 0.048c0.436 0.89 0.585 1.731 0.871 3.373 0.225 1.203 0.409 2.674 0.509 4.167l0.006 0.12zM22.814 26.345h-5.048v1.435h5.048zM13.384 20.294c-0.421-0.008-0.824-0.075-1.203-0.194l0.030 0.008c-0.388-0.129-0.72-0.278-1.034-0.457l0.028 0.015c-0.371-0.198-0.678-0.385-0.974-0.587l0.036 0.023-0.664 0.21q0.759 1.377 1.523 2.742zM17.437 19.658c-0.286 0.167-0.618 0.32-0.966 0.439l-0.040 0.012c-0.349 0.113-0.751 0.184-1.167 0.195l-0.006 0 2.258 1.761 1.523-2.742-0.667-0.21c-0.257 0.172-0.563 0.353-0.879 0.518l-0.057 0.027zM17.028 18.018c0.439-0.323 0.808-0.709 1.102-1.15l0.010-0.017c0.283-0.401 0.53-0.861 0.717-1.349l0.015-0.043c0.213-0.528 0.387-1.147 0.495-1.79l0.007-0.054c0.192-1.007 0.303-2.166 0.305-3.35v-0.002h2.044v-2.907h-0.966c0.001-0.038 0.001-0.084 0.001-0.129 0-0.702-0.093-1.383-0.266-2.031l0.012 0.055c-0.235-1.060-0.709-1.985-1.363-2.751l0.007 0.009c-0.5-0.564-1.1-1.026-1.776-1.359l-0.034-0.015-1.094 2.87q0.128-2.002 0.259-4l-4.503 0.012q0.137 1.947 0.277 3.894-0.503-1.371-1.008-2.742c-1.014 0.624-1.832 1.476-2.398 2.488l-0.018 0.034c-0.435 0.782-0.723 1.702-0.8 2.682l-0.001 0.023c1.505 0.36 3.348 0.666 5.225 0.854l0.183 0.015c0.35 0.034 0.695 0.061 1.033 0.088h-7.431v2.919h1.929c-0.011 0.21-0.017 0.457-0.017 0.705 0 0.444 0.019 0.883 0.057 1.317l-0.004-0.056c0.063 1.149 0.3 2.224 0.686 3.225l-0.024-0.072c0.207 0.55 0.459 1.026 0.761 1.463l-0.015-0.022c0.324 0.484 0.723 0.889 1.186 1.209l0.015 0.010c0.436 0.285 0.947 0.497 1.496 0.605l0.027 0.004c0.319 0.068 0.685 0.107 1.060 0.107 0.013 0 0.026-0 0.039-0h-0.002c0.068 0.003 0.148 0.005 0.229 0.005 0.4 0 0.788-0.046 1.161-0.134l-0.034 0.007c0.539-0.13 1.012-0.347 1.431-0.637l-0.014 0.009z"></path>
</svg>
