<!-- Generated by IcoMoon.io -->
<svg version="1.1" xmlns="http://www.w3.org/2000/svg" width="31" height="32" viewBox="0 0 31 32">
<title>maintenance</title>
<path d="M18.645 6.129c-3.244 0.003-5.873 2.634-5.873 5.879 0 3.247 2.632 5.879 5.879 5.879s5.879-2.632 5.879-5.879v0c0-3.247-2.632-5.879-5.879-5.879-0.002 0-0.004 0-0.006 0h0zM18.645 15.275c-1.805 0-3.268-1.463-3.268-3.268s1.463-3.268 3.268-3.268c1.805 0 3.268 1.463 3.268 3.268v0c0 0.001 0 0.002 0 0.003 0 1.803-1.462 3.265-3.265 3.265-0.001 0-0.002 0-0.003 0h0zM29.565 11.246l1.006-0.546c-0.064-0.679-0.175-1.296-0.331-1.895l0.018 0.082c-0.18-0.697-0.389-1.29-0.641-1.861l0.030 0.076-1.233-0.023-0.625-1.088 0.625-1.137c-0.376-0.491-0.758-0.927-1.168-1.335l-0-0c-0.445-0.438-0.923-0.847-1.427-1.222l-0.036-0.026-1.253 0.654-1.009-0.693v-1.307c-0.47-0.192-1.060-0.387-1.665-0.545l-0.105-0.023c-0.507-0.138-1.138-0.263-1.781-0.349l-0.080-0.009-0.506 1.12h-1.483c-0.162-0.375-0.335-0.747-0.506-1.12-0.773 0.111-1.452 0.264-2.112 0.464l0.1-0.026c-0.65 0.188-1.184 0.381-1.702 0.604l0.094-0.036v1.267l-1.137 0.654-1.125-0.654c-0.98 0.752-1.823 1.615-2.533 2.582l-0.025 0.035 0.679 1.117-0.733 1.182h-1.253c-0.136 0.446-0.284 0.915-0.398 1.395-0.199 0.753-0.361 1.478-0.5 2.171l1.034 0.628v1.276l-0.446 0.361c1.8 1.068 2.997 2.987 3.035 5.189l0 0.005 7.527 4.356c0.86-0.481 1.887-0.765 2.98-0.765 0.945 0 1.84 0.212 2.641 0.59l-0.038-0.016 0.188-0.625 1.091-0.568c0.361 0.193 0.725 0.381 1.088 0.568 0.55-0.429 1.039-0.874 1.491-1.355l0.006-0.006c0.355-0.379 0.694-0.788 1.008-1.216l0.026-0.037-0.642-1.239 0.736-1.137h1.307c0.178-0.447 0.351-0.997 0.486-1.562l0.017-0.086c0.134-0.554 0.235-1.21 0.282-1.881l0.002-0.039-1.020-0.563zM18.645 19.449c-4.11 0-7.442-3.332-7.442-7.442s3.332-7.442 7.442-7.442c4.11 0 7.442 3.332 7.442 7.442v0c0 0.001 0 0.002 0 0.003 0 4.108-3.33 7.439-7.439 7.439-0.001 0-0.002 0-0.003 0h0zM24.968 25.882c0.235 0.504 0.372 1.095 0.372 1.718 0 0.015-0 0.031-0 0.046l0-0.002h-0.284l-1.287-1.344-2.324-0.091-1.489 2.841c0.432 0.568 0.867 1.162 1.299 1.742l1.787 0.568 0.017 0.301c-0.572 0.215-1.233 0.339-1.922 0.339-0.038 0-0.077-0-0.115-0.001l0.006 0c-0.032 0.001-0.070 0.001-0.108 0.001-0.879 0-1.7-0.247-2.398-0.675l0.020 0.011c-0.807-0.532-1.422-1.299-1.752-2.202l-0.010-0.031c-0.202-0.475-0.319-1.028-0.319-1.608 0-0.191 0.013-0.38 0.037-0.564l-0.002 0.022c0-0.037 0-0.074 0.020-0.114l-9.164-5.245c-0.603 0.485-1.349 0.816-2.166 0.924l-0.022 0.002c-0.228 0.040-0.491 0.063-0.759 0.063-0.779 0-1.512-0.194-2.155-0.535l0.025 0.012c-0.84-0.441-1.5-1.127-1.896-1.963l-0.011-0.026c-0.232-0.501-0.367-1.088-0.367-1.705 0-0.016 0-0.032 0-0.047l-0 0.002h0.284l1.29 1.344 2.321 0.091 1.489-2.841-1.299-1.742-1.787-0.568-0.017-0.284c0.572-0.215 1.233-0.339 1.923-0.339 0.038 0 0.076 0 0.114 0.001l-0.006-0c0.030-0.001 0.066-0.001 0.101-0.001 0.881 0 1.705 0.248 2.405 0.677l-0.020-0.011c0.806 0.532 1.421 1.297 1.752 2.2l0.010 0.031c0.195 0.468 0.309 1.012 0.309 1.582 0 0.201-0.014 0.398-0.041 0.591l0.003-0.022c0 0.051-0.017 0.099-0.026 0.148l9.166 5.197c0.606-0.492 1.357-0.829 2.18-0.938l0.022-0.002c0.222-0.038 0.478-0.060 0.739-0.060 0.785 0 1.523 0.197 2.17 0.544l-0.025-0.012c0.838 0.439 1.498 1.121 1.898 1.952l0.011 0.026z"></path>
</svg>
