<?xml version="1.0" standalone="no"?>
<!DOCTYPE svg PUBLIC "-//W3C//DTD SVG 20010904//EN"
 "http://www.w3.org/TR/2001/REC-SVG-20010904/DTD/svg10.dtd">
<svg version="1.0" xmlns="http://www.w3.org/2000/svg"
 width="30.000000pt" height="23.000000pt" viewBox="0 0 30.000000 23.000000"
 preserveAspectRatio="xMidYMid meet">

<g transform="translate(0.000000,23.000000) scale(0.100000,-0.100000)"
fill="#000000" stroke="none">
<path d="M94 209 c-3 -5 -12 -9 -20 -9 -47 0 -67 -102 -27 -139 26 -24 72 -35
89 -20 8 6 14 8 14 3 0 -5 11 4 24 19 32 38 30 102 -5 128 -28 21 -67 30 -75
18z m60 -48 c24 -26 17 -60 -16 -84 l-28 -21 -27 21 c-16 11 -29 30 -31 42 -5
30 25 61 58 61 15 0 35 -9 44 -19z"/>
<path d="M86 157 c-38 -27 2 -95 42 -71 24 16 28 55 6 71 -10 7 -21 13 -24 13
-3 0 -14 -6 -24 -13z m48 -23 c8 -21 -1 -34 -24 -34 -20 0 -30 17 -22 38 6 17
39 15 46 -4z"/>
<path d="M208 78 c-14 -20 -14 -25 -1 -45 9 -13 25 -23 38 -23 13 0 29 10 38
23 13 20 13 25 -1 45 -19 28 -55 28 -74 0z m60 -21 c4 -20 -25 -34 -40 -19
-15 15 -1 44 19 40 10 -2 19 -11 21 -21z"/>
</g>
</svg>
