<!-- Generated by IcoMoon.io -->
<svg version="1.1" xmlns="http://www.w3.org/2000/svg" width="31" height="32" viewBox="0 0 31 32">
<title>service</title>
<path d="M19.059 17.743c3.214-0.007 5.817-2.614 5.817-5.828 0-3.219-2.61-5.828-5.828-5.828s-5.828 2.609-5.828 5.828c0 0.726 0.133 1.422 0.376 2.063l-0.013-0.040c0.367 0.491 0.692 1.049 0.95 1.644l0.021 0.054c1.075 1.292 2.684 2.108 4.482 2.108 0.009 0 0.017-0 0.026-0h-0.001zM19.059 8.669c0.001 0 0.002 0 0.003 0 1.791 0 3.242 1.452 3.242 3.242s-1.452 3.242-3.242 3.242c-1.791 0-3.242-1.452-3.242-3.242v0c0-0.002 0-0.004 0-0.006 0-1.788 1.449-3.237 3.237-3.237 0.001 0 0.002 0 0.003 0h-0zM29.861 12.531l1.024 0.538c-0.051 0.706-0.151 1.356-0.3 1.989l0.017-0.084c-0.15 0.645-0.322 1.191-0.53 1.719l0.029-0.084h-1.296l-0.73 1.132 0.648 1.242c-0.335 0.461-0.672 0.866-1.033 1.248l0.006-0.006c-0.455 0.483-0.94 0.925-1.457 1.328l-0.029 0.021-1.078-0.566-1.202 0.6v1.31c-0.984 0.536-2.155 0.852-3.4 0.852-0.069 0-0.138-0.001-0.207-0.003l0.010 0c-0.178-0.308-0.357-0.617-0.532-0.928l-1.443 0.031-0.639 1.095-3.435-1.047c0.597-1.142 0.952-2.493 0.965-3.926l0-0.004c0-0.283 0-0.529-0.034-0.775 1.095 0.678 2.423 1.081 3.845 1.081 4.077 0 7.382-3.305 7.382-7.382s-3.305-7.382-7.382-7.382c-4.077 0-7.382 3.305-7.382 7.382 0 0 0 0 0 0v0c0 0.051 0 0.102 0 0.153-1.226-0.883-2.734-1.45-4.367-1.552l-0.024-0.001c0.13-0.639 0.283-1.307 0.464-1.981 0.127-0.478 0.257-0.942 0.393-1.386h1.242l0.733-1.202-0.673-1.106c0.386-0.534 0.785-1.004 1.215-1.442l-0.002 0.002c0.405-0.409 0.836-0.79 1.292-1.141l0.030-0.022 1.109 0.648 1.132-0.648v-1.234c0.412-0.18 0.942-0.372 1.484-0.537l0.112-0.029c0.556-0.171 1.234-0.322 1.928-0.423l0.078-0.009c0.17 0.371 0.342 0.738 0.512 1.109h1.46l0.504-1.109c0.712 0.092 1.336 0.216 1.944 0.377l-0.105-0.024c0.702 0.18 1.286 0.373 1.853 0.601l-0.099-0.035v1.296l1.004 0.673 1.242-0.648c0.539 0.397 1.014 0.805 1.458 1.243l-0.001-0.001c0.409 0.406 0.789 0.839 1.138 1.297l0.022 0.030-0.622 1.132 0.622 1.081 1.217 0.025c0.219 0.488 0.427 1.076 0.589 1.683l0.019 0.085c0.137 0.512 0.246 1.124 0.305 1.75l0.004 0.047-0.999 0.54zM13.691 18.897c-0.002-3.78-3.067-6.844-6.847-6.844-3.781 0-6.847 3.066-6.847 6.847s3.066 6.847 6.847 6.847v0c3.782 0 6.847-3.066 6.847-6.847 0-0.001 0-0.002 0-0.003v0zM6.844 24.174c-2.914 0-5.277-2.362-5.277-5.277s2.362-5.277 5.277-5.277c2.914 0 5.277 2.362 5.277 5.277v0c0 2.914-2.362 5.277-5.277 5.277v0zM9.702 16.549c1.047 1.222 0.849 2.744 0.77 3.158-0.068 0.362-0.238 1.304-0.871 1.582-0.213 0.078-0.461 0.135-0.717 0.16l-0.013 0.001c-0.153 0.021-0.33 0.032-0.51 0.032-0.112 0-0.223-0.005-0.333-0.014l0.014 0.001q-1.48-2.309-2.948-4.617c0.112-0.362 0.263-0.677 0.453-0.965l-0.009 0.014c0.103-0.161 0.21-0.3 0.328-0.43l-0.002 0.003c0.555-0.572 2.668-0.291 3.839 1.075zM12.814 25.037l4.117 5.52-1.862 1.457-4.173-5.543z"></path>
</svg>
