<?xml version="1.0" standalone="no"?>
<!DOCTYPE svg PUBLIC "-//W3C//DTD SVG 20010904//EN"
 "http://www.w3.org/TR/2001/REC-SVG-20010904/DTD/svg10.dtd">
<svg version="1.0" xmlns="http://www.w3.org/2000/svg"
 width="32.000000pt" height="22.000000pt" viewBox="0 0 32.000000 22.000000"
 preserveAspectRatio="xMidYMid meet">

<g transform="translate(0.000000,22.000000) scale(0.100000,-0.100000)"
fill="#000000" stroke="none">
<path d="M110 161 c0 -34 -3 -38 -20 -34 -17 5 -20 0 -20 -27 0 -26 3 -30 13
-21 14 11 27 5 27 -13 0 -6 -5 -4 -10 4 -6 9 -10 10 -10 3 0 -19 18 -25 27 -9
7 12 14 12 45 2 38 -14 65 -4 50 19 -4 6 1 3 10 -8 11 -11 26 -17 40 -14 l23
4 -22 2 c-18 1 -23 7 -23 30 0 43 -11 91 -21 91 -5 0 -9 -19 -10 -42 l0 -43
-15 48 c-14 44 -17 47 -49 47 -34 0 -35 -1 -35 -39z m68 4 c25 -54 1 -77 -32
-32 -12 15 -16 17 -12 5 3 -10 1 -18 -4 -18 -6 0 -10 16 -10 35 0 30 3 35 23
35 16 0 28 -9 35 -25z m7 -75 c-3 -5 -1 -10 4 -10 6 0 11 -5 11 -11 0 -8 -5
-8 -15 1 -13 11 -12 30 1 30 3 0 2 -4 -1 -10z"/>
<path d="M37 34 c-4 -4 -7 -12 -7 -18 0 -6 5 -4 11 4 8 11 12 12 16 3 6 -17
99 -17 107 0 5 9 7 9 12 -1 8 -16 101 -16 107 1 4 9 8 8 17 -3 10 -13 11 -13
7 0 -3 12 -28 16 -133 18 -72 1 -133 -1 -137 -4z"/>
</g>
</svg>
